<?xml version="1.0" standalone="no"?>
<!DOCTYPE svg PUBLIC "-//W3C//DTD SVG 20010904//EN"
 "http://www.w3.org/TR/2001/REC-SVG-20010904/DTD/svg10.dtd">
<svg version="1.0" xmlns="http://www.w3.org/2000/svg"
 width="322.000000pt" height="332.000000pt" viewBox="0 0 322.000000 332.000000"
 preserveAspectRatio="xMidYMid meet">

<g transform="translate(0.000000,332.000000) scale(0.100000,-0.100000)"
fill="#ca9b08" stroke="none">
<path d="M1436 3180 c-423 -53 -830 -306 -1041 -645 -25 -40 -15 -30 30 30
222 291 532 490 888 567 145 31 407 31 554 0 515 -111 925 -478 1087 -975 47
-143 66 -266 66 -428 0 -395 -137 -727 -414 -1005 -215 -215 -440 -338 -736
-401 -133 -28 -421 -26 -559 5 -372 84 -682 294 -900 612 -114 166 -188 344
-233 560 -24 117 -45 149 -34 53 54 -462 228 -770 591 -1044 385 -291 952
-364 1412 -180 185 73 343 180 498 336 176 175 291 359 364 580 51 155 63 228
68 420 6 210 -12 340 -73 523 -71 215 -183 391 -359 568 -212 213 -428 332
-725 400 -118 28 -362 40 -484 24z"/>
<path d="M1406 3064 c-429 -72 -798 -339 -990 -714 -105 -206 -145 -357 -153
-582 -3 -91 -1 -178 7 -230 63 -439 317 -802 711 -1017 42 -22 80 -41 85 -41
5 0 -28 20 -72 45 -335 182 -582 493 -673 845 -33 127 -44 220 -43 355 1 280
70 509 225 740 121 181 258 309 469 438 61 38 214 98 306 121 141 35 162 38
317 46 l140 7 -125 0 c-69 0 -161 -5 -204 -13z"/>
<path d="M2525 2710 c217 -229 343 -507 375 -825 17 -164 -5 -367 -61 -573
-11 -40 -18 -78 -16 -85 7 -18 74 130 96 214 91 343 22 734 -186 1047 -30 45
-96 124 -146 175 -121 123 -164 155 -62 47z"/>
<path d="M2155 2069 c-85 -19 -154 -108 -155 -197 0 -46 21 -105 48 -135 25
-28 101 -64 175 -83 104 -26 131 -65 83 -121 -30 -35 -92 -38 -130 -8 -102 83
-94 78 -126 65 -34 -14 -60 -50 -60 -81 0 -33 87 -113 145 -133 78 -26 151
-21 224 15 86 43 115 87 119 184 7 131 -34 175 -199 215 -91 21 -119 40 -119
80 0 61 87 82 150 35 44 -33 66 -32 101 6 58 63 25 119 -90 153 -60 17 -104
19 -166 5z"/>
<path d="M985 2054 c-67 -20 -152 -79 -192 -132 -73 -97 -83 -246 -24 -366 91
-185 347 -253 509 -136 48 34 51 53 20 100 -38 55 -49 58 -112 26 -141 -71
-296 14 -298 164 0 61 8 86 39 129 54 71 170 92 257 46 26 -14 53 -25 60 -25
22 0 76 68 76 95 0 27 -42 64 -105 90 -57 24 -169 28 -230 9z"/>
<path d="M1788 2058 c-26 -20 -158 -178 -185 -220 -38 -61 -48 -46 -51 80 -3
107 -4 113 -28 128 -28 19 -101 14 -115 -8 -5 -7 -9 -155 -9 -329 0 -356 -3
-344 75 -344 69 0 75 11 75 141 0 62 4 115 9 119 6 3 22 -11 38 -31 70 -92
206 -234 223 -234 30 0 90 58 90 86 0 26 -45 81 -162 196 -37 37 -68 70 -68
74 0 4 52 60 115 125 131 133 140 156 84 203 -33 28 -66 33 -91 14z"/>
<path d="M2679 604 c-175 -183 -478 -340 -779 -406 -140 -30 -465 -33 -603 -5
-72 15 -259 65 -343 93 -10 3 1 -6 26 -21 62 -37 226 -90 345 -111 152 -27
396 -24 545 6 245 49 461 146 655 295 64 50 207 185 194 185 -3 0 -21 -16 -40
-36z"/>
<path d="M1110 460 c8 -5 20 -10 25 -10 6 0 3 5 -5 10 -8 5 -19 10 -25 10 -5
0 -3 -5 5 -10z"/>
<path d="M1438 373 c7 -3 16 -2 19 1 4 3 -2 6 -13 5 -11 0 -14 -3 -6 -6z"/>
<path d="M1538 363 c6 -2 18 -2 25 0 6 3 1 5 -13 5 -14 0 -19 -2 -12 -5z"/>
</g>
</svg>
