<?xml version="1.0" standalone="no"?>
<!DOCTYPE svg PUBLIC "-//W3C//DTD SVG 20010904//EN"
 "http://www.w3.org/TR/2001/REC-SVG-20010904/DTD/svg10.dtd">
<svg version="1.0" xmlns="http://www.w3.org/2000/svg"
 width="500.000000pt" height="500.000000pt" viewBox="0 0 500.000000 500.000000"
 preserveAspectRatio="xMidYMid meet">

<g transform="translate(0.000000,500.000000) scale(0.100000,-0.100000)"
fill="#000000" stroke="none">
<path d="M1537 4744 c-58 -18 -124 -81 -158 -151 -48 -100 -36 -323 33 -601
16 -67 28 -128 25 -136 -3 -9 -34 -15 -93 -20 -154 -12 -239 -47 -273 -114
-10 -21 -46 -59 -80 -86 -137 -110 -265 -293 -341 -486 -22 -56 -138 -384
-191 -540 -84 -247 -158 -562 -198 -844 -29 -199 -34 -290 -21 -406 27 -244
132 -421 306 -512 96 -50 164 -68 259 -68 71 0 90 4 143 31 109 54 164 130
337 464 37 72 70 134 75 138 4 5 41 -12 81 -37 69 -41 184 -98 285 -141 l41
-17 6 -72 c3 -40 15 -118 28 -174 l23 -100 -25 -26 c-13 -14 -34 -26 -45 -26
-12 0 -41 -9 -65 -19 l-44 -20 -44 25 c-24 13 -53 24 -65 23 -18 -1 -18 -2 4
-8 36 -11 70 -34 70 -47 0 -11 51 -24 100 -24 14 0 32 -5 40 -10 13 -9 12 -13
-8 -30 -18 -15 -28 -17 -48 -10 -33 13 -51 13 -38 1 5 -5 37 -15 72 -22 67
-14 59 -15 224 36 l87 26 132 -19 132 -19 44 24 c31 16 92 31 201 48 87 13
182 30 214 36 73 16 101 8 243 -73 l110 -63 12 -50 c7 -27 11 -56 8 -63 -2 -7
-43 -31 -91 -54 -77 -37 -84 -43 -68 -55 23 -17 35 -17 28 0 -3 9 14 22 48 37
29 13 66 33 82 44 26 17 28 23 22 60 -4 23 -9 50 -12 62 -5 17 4 24 63 47 37
15 81 36 97 46 l29 19 -41 27 c-27 18 -47 25 -61 20 -12 -4 -21 -2 -21 4 0 6
-10 19 -21 30 -21 19 -21 22 -9 158 28 316 20 284 89 359 78 83 103 122 136
218 15 42 32 79 37 82 25 16 117 -122 354 -530 60 -103 128 -209 151 -235 85
-97 187 -126 334 -97 345 69 522 368 480 811 -35 367 -97 646 -227 1025 -70
203 -177 486 -216 569 -76 167 -230 368 -328 432 -38 25 -52 41 -60 69 -5 20
-18 44 -27 52 -24 22 -87 47 -153 62 l-55 13 3 119 c4 136 -6 177 -59 249 -90
120 -276 129 -367 19 -37 -45 -65 -127 -119 -356 -21 -87 -42 -158 -48 -158
-6 0 -19 16 -30 36 -48 90 -163 148 -281 142 -61 -3 -79 -8 -130 -40 l-59 -36
-36 29 c-71 56 -136 79 -224 79 -106 0 -168 -28 -221 -99 -21 -28 -42 -51 -46
-51 -4 0 -10 10 -13 23 -34 148 -53 237 -95 437 -64 303 -81 356 -129 418 -71
90 -198 130 -304 96z m187 -95 c65 -43 82 -83 141 -322 101 -409 95 -377 79
-409 -21 -40 -73 -97 -104 -113 -96 -50 -253 -11 -303 75 -10 16 -25 72 -33
124 -14 88 -14 97 2 121 28 44 94 74 205 95 57 11 105 20 107 20 2 0 0 5 -3
10 -3 6 -39 10 -79 10 -61 0 -83 -5 -134 -31 -34 -17 -75 -46 -90 -65 l-29
-35 -6 38 c-45 298 -26 436 67 495 43 27 131 21 180 -13z m1794 -426 c44 -21
80 -77 88 -136 6 -44 -20 -241 -35 -265 -9 -15 -123 -18 -148 -4 -35 20 -173
13 -173 -8 0 -4 29 -5 64 -3 35 3 77 2 93 -2 l28 -7 -30 -12 c-20 -8 -42 -10
-65 -5 -19 5 -48 9 -63 9 -15 0 -37 9 -48 19 -18 16 -20 27 -14 63 12 83 79
297 99 323 43 53 127 64 204 28z m-1073 -400 c87 -45 108 -90 125 -268 17
-175 11 -306 -17 -343 -41 -55 -77 -67 -198 -67 -97 0 -116 3 -160 25 -82 41
-90 68 -89 285 0 194 7 233 57 312 40 63 86 84 172 80 45 -3 84 -11 110 -24z
m450 -22 c49 -22 88 -66 106 -118 9 -26 13 -101 13 -230 l1 -192 -28 -29 c-48
-51 -154 -65 -270 -38 -104 25 -102 19 -101 284 l1 228 26 39 c40 59 72 75
147 75 41 0 80 -7 105 -19z m-1307 -37 c12 -4 22 -13 22 -21 0 -8 -5 -11 -10
-8 -6 3 -38 12 -73 20 l-62 13 50 1 c28 0 60 -2 73 -5z m2148 -9 c111 -18 121
-21 127 -46 7 -24 1 -24 -66 6 -109 48 -253 56 -370 21 -41 -12 -47 -12 -47 0
0 8 10 19 23 24 35 14 233 11 333 -5z m-2506 -19 c-36 -13 -73 -27 -82 -31
-20 -8 -25 10 -6 21 15 10 106 32 133 33 11 0 -9 -10 -45 -23z m2475 -24 c18
-10 15 -11 -18 -12 -40 0 -317 -53 -377 -72 -49 -15 -201 -81 -197 -85 2 -2
60 15 128 38 114 38 134 42 254 46 72 2 150 0 175 -5 l45 -10 -69 -1 c-39 -1
-99 -8 -135 -17 -66 -17 -167 -61 -158 -70 2 -2 31 3 63 12 36 10 112 17 194
20 l135 3 -95 -13 c-204 -30 -292 -83 -477 -291 -38 -43 -43 -46 -65 -34 -33
17 -38 28 -38 81 l0 47 78 3 77 3 0 50 0 50 -65 1 -65 1 55 -6 c49 -5 55 -9
58 -30 5 -32 -21 -51 -69 -51 -57 0 -69 8 -69 46 0 19 3 34 8 34 4 0 7 32 7
71 0 67 2 72 33 100 18 16 40 29 50 29 9 0 87 18 172 40 139 36 165 40 250 37
53 -2 105 -9 115 -15z m-2060 -27 c77 -20 196 -45 265 -56 69 -11 131 -26 139
-34 20 -19 26 -115 11 -172 -13 -55 -35 -83 -63 -83 -27 0 -57 -28 -57 -54 -1
-44 -56 -84 -90 -66 -10 5 -44 44 -75 85 -113 149 -241 223 -440 251 l-90 13
140 -3 c107 -3 155 -8 204 -24 92 -30 57 1 -40 35 -50 17 -104 28 -169 31
-116 7 -81 19 60 21 132 1 197 -11 383 -74 88 -30 168 -55 176 -55 26 0 -244
107 -364 145 -118 36 -210 54 -290 56 -82 2 -14 17 80 18 61 1 113 -7 220 -34z
m2200 -167 c95 -21 204 -79 268 -144 28 -29 83 -114 73 -114 -3 0 -29 21 -58
47 -92 81 -207 140 -310 157 -174 30 -368 -22 -492 -132 -20 -18 -34 -37 -31
-42 3 -5 0 -7 -7 -5 -25 10 -110 -122 -149 -230 -26 -75 -23 -21 4 62 72 220
255 375 485 412 54 9 144 5 217 -11z m-2402 -13 c190 -49 345 -192 412 -378
24 -68 38 -150 24 -141 -5 3 -9 14 -9 25 0 32 -45 133 -88 195 -76 112 -178
186 -327 238 -110 38 -239 40 -337 3 -98 -36 -172 -84 -235 -152 -47 -50 -104
-145 -127 -212 -3 -10 -15 -43 -26 -73 l-20 -55 6 45 c6 57 26 115 65 194 78
156 199 259 364 307 76 22 221 24 298 4z m2430 -85 c77 -24 172 -85 223 -143
20 -23 53 -75 72 -116 30 -62 36 -88 40 -157 9 -167 -33 -288 -137 -390 -142
-140 -360 -178 -539 -94 -83 39 -131 77 -186 150 -64 86 -90 171 -91 295 0
146 42 243 147 344 48 46 156 106 214 120 71 16 187 12 257 -9z m-2401 -32
c125 -59 215 -155 263 -283 37 -98 36 -100 -38 -101 -39 0 -82 -8 -118 -22
-63 -25 -196 -111 -274 -176 -27 -23 -56 -46 -62 -50 -16 -9 -63 40 -63 64 0
40 -79 67 -206 70 -38 0 -55 23 -59 78 -7 79 10 92 124 92 85 0 91 1 110 26
18 23 21 41 21 118 0 58 4 96 12 104 7 7 42 12 87 12 104 0 111 -8 111 -122 0
-121 8 -129 133 -126 l92 2 -90 3 c-122 5 -125 9 -125 134 0 123 -6 129 -126
129 -109 0 -118 -9 -122 -134 -2 -50 -9 -97 -14 -103 -7 -9 -41 -13 -105 -13
-86 0 -96 -2 -118 -25 -23 -22 -25 -32 -25 -106 0 -71 3 -86 22 -106 20 -21
30 -23 119 -23 119 0 129 -8 129 -109 0 -63 0 -64 -56 -127 l-56 -64 -30 17
c-54 32 -128 121 -163 195 -94 202 -50 425 112 568 99 87 198 122 338 117 90
-3 108 -7 177 -39z m601 -158 c16 -30 38 -65 49 -77 65 -69 366 -85 450 -23
34 25 42 25 94 0 30 -15 62 -21 121 -21 100 -1 152 14 203 58 l40 35 0 -50 c0
-69 -21 -112 -82 -167 -55 -49 -166 -107 -231 -119 -20 -4 -37 -10 -37 -14 0
-12 -212 -14 -300 -2 -160 21 -265 64 -341 140 -44 44 -49 54 -50 97 -1 26 -4
38 -6 26 -8 -40 -23 -25 -25 25 -2 80 3 106 25 130 33 35 58 25 90 -38z m-252
-256 c67 -20 134 -58 219 -124 36 -27 88 -67 117 -88 28 -20 54 -47 57 -59 3
-12 28 -37 54 -57 97 -71 214 -103 305 -85 107 23 115 13 72 -92 -29 -72 -53
-101 -111 -135 -127 -75 -333 -88 -504 -34 -36 12 -110 30 -164 41 -140 28
-189 57 -229 134 -24 45 -20 8 4 -41 18 -38 95 -104 121 -104 15 0 8 -30 -17
-81 -26 -49 -91 -122 -150 -166 -17 -12 -24 -23 -16 -23 17 0 114 63 142 93
19 21 29 22 148 21 138 -1 200 -12 300 -50 129 -50 240 -143 321 -269 48 -72
63 -80 30 -15 l-22 43 87 -7 c172 -14 312 -45 359 -81 46 -34 142 -66 218 -72
l67 -6 11 -53 c6 -29 8 -70 4 -91 -17 -93 -81 -196 -149 -243 -25 -17 -45 -34
-45 -38 0 -4 10 -12 23 -17 20 -9 23 -19 27 -100 7 -111 -2 -138 -70 -206 -58
-58 -177 -119 -286 -146 -92 -23 -393 -23 -506 0 -100 21 -215 69 -266 112
-82 70 -116 170 -82 240 23 46 52 55 180 55 149 0 174 15 38 23 -115 7 -216
33 -349 92 -236 103 -357 194 -493 369 -38 50 -118 144 -177 210 -69 77 -120
145 -140 185 -30 61 -31 68 -20 109 52 196 360 561 594 704 107 67 196 82 298
52z m1439 -217 c0 -23 89 -145 132 -180 147 -119 329 -148 523 -82 11 4 5 -3
-13 -14 -72 -47 -219 -64 -334 -40 -107 23 -216 98 -281 196 l-34 51 -40 -56
c-23 -32 -60 -68 -83 -82 -90 -54 -165 -117 -194 -163 -26 -42 -30 -61 -34
-137 -6 -120 14 -183 82 -258 28 -30 41 -50 29 -44 -36 20 -92 93 -113 149
-30 80 -28 191 6 263 31 67 90 130 167 177 69 42 127 112 153 182 17 48 34 67
34 38z m-152 -69 c-19 -52 -49 -83 -109 -113 -78 -40 -137 -92 -181 -159 -45
-70 -48 -66 -10 12 34 71 121 158 197 197 34 18 69 45 84 66 14 20 27 36 29
35 1 -2 -4 -18 -10 -38z m1280 -45 c63 -104 128 -249 158 -348 127 -428 173
-797 125 -998 -21 -89 -45 -129 -29 -50 5 26 9 107 9 178 0 191 -33 395 -102
618 -30 99 -46 126 -29 52 16 -70 22 -238 11 -309 -28 -194 -156 -299 -285
-236 -136 66 -247 300 -214 453 7 36 31 80 78 147 121 174 186 311 209 446 17
95 21 114 25 114 2 0 22 -30 44 -67z m-2111 37 c41 -25 121 -47 198 -55 103
-10 135 -16 129 -26 -8 -14 -134 -11 -197 6 -62 16 -117 42 -157 74 -32 26
-15 27 27 1z m-1602 -87 c25 -138 74 -262 155 -390 17 -26 35 -64 40 -84 6
-21 29 -65 52 -99 41 -61 41 -62 35 -133 -7 -89 -36 -164 -92 -243 -97 -136
-216 -163 -310 -70 -63 63 -89 148 -89 291 0 61 3 135 6 165 l7 55 -26 -75
c-85 -253 -113 -580 -69 -790 8 -36 12 -67 11 -68 -7 -8 -43 77 -61 143 -28
104 -26 375 5 547 39 221 133 555 188 662 24 48 116 186 124 186 4 0 14 -44
24 -97z m2641 -122 c160 -73 210 -284 96 -404 -38 -41 -77 -67 -113 -77 -41
-12 -34 -6 32 28 169 85 169 329 0 415 -32 15 -70 27 -90 26 -33 -1 -32 -2 17
-14 30 -7 66 -21 80 -32 36 -27 79 -83 86 -113 4 -14 -4 -5 -17 20 -13 25 -43
58 -66 75 -38 27 -51 30 -117 30 -45 0 -78 -5 -82 -11 -4 -7 -16 -14 -27 -16
-11 -2 -19 -11 -19 -20 1 -10 -4 -14 -11 -11 -17 6 -43 -34 -68 -101 -17 -49
-18 -36 -2 40 l6 29 -15 -25 c-26 -44 -29 -101 -8 -163 10 -31 17 -57 16 -57
-2 0 -14 19 -26 43 -47 90 -20 229 57 295 74 62 188 81 271 43z m-754 -223
c18 -15 48 -59 48 -70 0 -5 -8 -8 -17 -8 -10 0 -36 -14 -57 -30 -44 -33 -60
-32 -30 3 51 57 42 56 -19 -3 -37 -35 -67 -61 -67 -56 0 4 16 37 36 72 20 36
34 67 32 70 -11 10 -66 -19 -78 -41 -17 -31 -34 -33 -25 -2 10 31 25 44 70 61
50 18 87 20 107 4z"/>
<path d="M1704 4187 c-17 -7 -42 -20 -55 -29 -23 -17 -22 -17 24 -3 27 7 78
17 113 20 35 4 61 11 58 16 -7 13 -103 10 -140 -4z"/>
<path d="M2285 3628 c-42 -15 -84 -56 -106 -104 -24 -54 -38 -157 -29 -214 l7
-45 2 47 c5 216 119 335 255 268 68 -32 95 -85 104 -197 10 -118 8 -125 -26
-111 -39 15 -200 13 -244 -3 -35 -13 -31 -14 80 -14 93 0 126 -4 159 -19 67
-30 73 -22 73 92 0 129 -19 194 -74 248 -57 58 -130 77 -201 52z"/>
<path d="M2740 3618 c-32 -17 -51 -35 -67 -68 -29 -56 -46 -159 -35 -203 8
-28 9 -24 15 39 6 77 34 148 72 184 35 33 101 38 152 11 55 -28 81 -83 90
-191 l6 -82 -44 8 c-62 13 -158 9 -197 -7 -31 -13 -28 -14 55 -11 69 3 99 0
140 -16 73 -28 78 -21 78 91 -1 148 -46 230 -142 256 -55 16 -73 14 -123 -11z"/>
<path d="M1777 3453 c-14 -13 -7 -91 7 -96 26 -10 155 5 160 18 3 10 -11 11
-58 8 -69 -6 -106 7 -106 36 0 16 12 21 73 29 l72 9 -71 2 c-39 0 -74 -2 -77
-6z"/>
<path d="M3655 3380 c-51 -25 -75 -65 -75 -125 0 -115 114 -185 212 -129 35
21 72 82 66 111 -3 13 -8 9 -21 -17 -18 -37 -62 -70 -92 -70 -9 0 -13 -4 -10
-10 3 -5 -3 -10 -15 -10 -12 0 -18 5 -15 10 3 6 -4 10 -18 10 -29 0 -51 22
-72 73 -14 35 -14 41 1 74 40 83 138 97 212 30 26 -24 29 -11 4 19 -23 29 -74
54 -109 54 -15 0 -46 -9 -68 -20z"/>
<path d="M3976 3095 c-77 -27 -115 -96 -94 -172 29 -107 180 -138 253 -52 94
112 -20 272 -159 224z m102 -35 c18 -11 40 -36 47 -54 13 -30 13 -39 0 -69
-21 -50 -59 -77 -109 -77 -23 0 -51 7 -62 15 -12 8 -24 12 -28 10 -3 -3 -4 -2
-1 2 3 3 -5 21 -16 40 -24 38 -21 65 12 107 39 49 102 60 157 26z m22 -189 c0
-5 -7 -12 -16 -15 -14 -5 -15 -4 -4 9 14 17 20 19 20 6z"/>
<path d="M3340 3064 c-83 -70 -77 -180 13 -234 38 -24 106 -26 147 -5 85 44
104 171 33 226 -17 13 -17 13 -2 -6 42 -50 30 -133 -24 -165 -39 -24 -66 -25
-115 -3 -20 9 -41 15 -45 14 -5 -1 -6 3 -3 8 8 13 -15 62 -25 55 -5 -3 -9 2
-9 11 0 30 28 82 55 103 15 12 23 22 17 22 -6 0 -24 -12 -42 -26z"/>
<path d="M3663 2791 c-41 -26 -43 -37 -3 -16 46 24 103 19 139 -11 62 -52 49
-139 -26 -175 -35 -17 -48 -19 -82 -9 -22 6 -49 21 -59 35 -11 13 -22 22 -25
19 -3 -3 -3 4 0 17 4 15 3 20 -5 15 -34 -21 9 -108 68 -139 115 -60 239 69
191 196 -26 69 -137 106 -198 68z"/>
<path d="M2450 1240 l-45 -7 45 -3 c25 -1 48 -2 53 -1 4 0 8 -12 8 -29 1 -16
3 -34 4 -40 1 -5 3 -51 4 -102 2 -135 20 -98 23 47 3 105 5 120 21 123 15 3
17 -5 17 -64 0 -79 13 -77 20 4 5 52 7 57 30 60 14 2 29 8 35 13 10 10 -146
10 -215 -1z"/>
<path d="M3345 830 l-70 -6 70 -1 c39 0 84 3 100 7 l30 8 -30 -1 c-16 0 -61
-3 -100 -7z"/>
<path d="M1454 594 c-58 -54 -51 -59 15 -10 43 32 50 32 109 2 48 -24 48 -24
72 -5 l25 20 -27 -7 c-20 -4 -42 2 -81 25 l-54 31 -59 -56z"/>
<path d="M2465 630 c-22 -5 -51 -13 -65 -18 l-25 -10 25 -5 c14 -3 58 -11 98
-17 78 -13 81 -18 24 -37 l-37 -13 35 6 c187 29 207 39 94 49 -44 3 -95 10
-114 14 l-35 8 35 16 c38 18 28 19 -35 7z"/>
<path d="M2420 523 c-14 -3 -29 -8 -34 -13 -7 -7 62 4 89 15 13 5 -23 3 -55
-2z"/>
</g>
</svg>
